<svg xmlns="http://www.w3.org/2000/svg" viewBox="0 0 512 512" width="512" height="512" role="img" aria-label="Promohaps">
  <rect width="512" height="512" rx="112" fill="#12b76a"/>
  <!-- Przekręcone „h" z logo Promohaps, wyśrodkowane na zielonym kaflu -->
  <path fill="#ffffff" transform="translate(111.85 86) scale(2.0655) translate(-649.8476 0)" d="M684.964746717001617,164.608472880875524L649.847624335925502,7.448909845616981l33.336086132643686-7.448909845616981,35.117122381077934,157.159563035257634-33.336086132645505,7.448909845617891ZM756.120502902864246,162.050181603245619l-14.849368905848678-72.979332072734906c-1.193178544128386-5.33982871896842-3.901214123394311-9.31633070568023-8.122663203273987-11.935308910276945s-8.930316087920801-3.347915380854829-14.123991137163102-2.187394704991675c-3.465929882106138.774458018864607-6.399381197117691,2.227331648478867-8.801520297471143,4.353401114916778-2.404165811092753,2.129262529617336-4.094500192684791,4.742966550295023-5.068976434034994,7.83791899885-.973893065129232,3.097562335517068-1.057573242238504,6.451080335711595-.251623707543331,10.057944113626945l-14.173298875408364-3.425906784665131c-1.838171442368548-8.226363696086992-1.683177040229566-15.834901552196243.466426740937095-22.831416518471087,2.146993894208208-6.995931790055693,5.945165069912036-12.881110846168667,11.393347174673181-17.66075694225583,5.448765280982116-4.777036209126891,12.139884511676428-8.053287110089514,20.07916064222627-9.827309168364081,8.226363696085173-1.838171442370367,15.819155794282779-1.753643988136901,22.78301289229239.249806123303642,6.964440274228764,2.006059998398996,12.845918588660425,5.615984506837776,17.647044830253435,10.82919034909537,4.801709417810343,5.215815729216047,8.090588511226088,11.791765127509279,9.864027393283322,19.72843137109885l16.494509019723409,80.341823185250178-33.336086132645505,7.448909845617891Z"/>
</svg>
